<svg width="256" height="29" viewBox="0 0 256 29" fill="none" xmlns="http://www.w3.org/2000/svg">
<path fill-rule="evenodd" clip-rule="evenodd" d="M80.749 0L77.904 4.877H75.175L74.305 6.311H77.062L70.993 16.694C69.716 18.902 70.617 20.94 73.055 20.94C74.278 20.94 75.593 20.303 76.908 19.319L76.13 20.653H79.176L83.764 12.766C88.408 6.999 90.47 7.746 89.163 9.956L85.243 16.696C83.965 18.906 84.866 20.944 87.304 20.944C89.1 20.944 91.092 19.574 92.997 17.739C93.143 19.596 94.664 20.944 97.087 20.944C100.51 20.944 103.907 18.304 106.403 15.436C106.206 15.033 105.684 14.575 105.277 14.403L105.074 14.629C102.896 17.126 100.11 19.104 97.992 19.104C96.132 19.104 95.028 17.958 96.422 15.549L96.712 15.029C98.658 15.834 102.316 15.46 104.58 11.589L105.017 10.842C106.642 8.089 105.075 6.024 102.607 6.024C100.168 6.024 98.224 7.287 96.947 9.465L94.017 14.43L93.841 14.63C91.664 17.124 89.546 19.102 88.21 19.102C87.544 19.102 87.164 18.642 87.86 17.467L92.215 9.924C93.521 7.659 92.275 6.024 90.591 6.024C89.284 6.024 87.889 6.741 86.381 8.289L91.199 0H88.18L79.757 14.438L79.587 14.628C77.411 17.124 75.29 19.102 73.954 19.102C73.287 19.102 72.91 18.642 73.608 17.467L80.08 6.309H82.547L83.419 4.876H80.923L83.768 0.001L80.749 0ZM48.44 4.879L51.285 0.004H54.304L51.458 4.877H53.957L53.085 6.313H50.62L44.144 17.471C43.447 18.646 43.825 19.106 44.492 19.106C45.827 19.106 47.949 17.127 50.125 14.631L50.281 14.455L51.518 12.365L52.998 9.812C54.74 6.828 56.538 5.912 58.86 5.912C61.706 5.912 63.389 8.865 61.561 11.992L58.716 16.838C60.227 16.809 61.91 16.094 63.274 14.631L63.479 14.403C63.885 14.575 64.407 15.032 64.607 15.436C63.067 17.242 60.223 18.332 58.423 18.332H57.757C54.488 22.416 49.141 21.673 49.147 17.871C47.281 19.64 45.344 20.944 43.59 20.944C41.152 20.944 40.251 18.906 41.529 16.697L47.597 6.314H44.84L45.71 4.879H48.44ZM59.238 10.877C60.266 9.135 59.8 7.93 58.816 7.84C58.051 7.77 56.973 8.376 56.046 9.932L54.595 12.369L52.301 16.297C50.501 19.394 53.958 19.853 55.38 17.443L55.41 17.387C55.235 17.099 55.119 16.754 55.119 16.383C55.119 15.408 55.902 14.604 56.889 14.604H57.034L59.238 10.877ZM102.55 10.846C103.562 9.102 103.03 8.185 102.061 8.242V8.243C101.309 8.287 100.292 8.921 99.529 10.213L97.583 13.57C98.716 13.972 100.663 14.03 102.113 11.592L102.55 10.846ZM146.379 2.779C144.665 4.299 144.521 5.993 145.596 7.369L145.858 7.713L145.796 7.79986C144.467 9.65583 142.692 12.1355 140.748 14.397L140.75 14.4L140.547 14.629C139.182 16.09 137.501 16.809 135.989 16.838L138.832 11.99C140.662 8.864 138.979 5.91 136.132 5.91C133.812 5.91 132.012 6.828 130.272 9.81L128.788 12.363L127.55 14.455L127.396 14.631C124.899 17.471 122.753 19.302 120.371 20.307L127.134 8.893H125.364C125.364 7.659 124.088 6.023 122.2 6.023C120.576 6.023 118.31 7.288 117.032 9.467L112.794 16.694C111.516 18.902 112.416 20.94 114.854 20.94C115.697 20.94 116.714 20.566 117.731 19.936L116.888 21.34C112.824 22.573 110.268 24.208 110.268 26.446C110.268 29.315 114.71 29.917 116.888 26.246L119.18 22.316C121.596 21.573 123.963 20.169 126.42 17.852C126.399 21.669 131.757 22.419 135.03 18.328H135.698C137.498 18.328 140.343 17.239 141.882 15.432C143.331 13.768 144.462 12.277 146.872 9.037L147.277 9.526C147.654 10.013 147.802 10.616 147.452 11.217L144.259 16.696C142.979 18.906 143.88 20.942 146.32 20.942C147.85 20.942 149.524 19.947 151.162 18.52C151.112 19.906 152.049 20.942 153.781 20.942C154.621 20.942 155.638 20.569 156.655 19.938L155.813 21.34C151.748 22.573 149.197 24.208 149.197 26.446C149.197 29.315 153.637 29.916 155.813 26.246L158.105 22.316C160.565 21.558 162.975 20.11 165.482 17.717C165.618 19.585 167.14 20.942 169.572 20.942C172.03 20.942 174.471 19.579 176.576 17.752C176.459 21.657 181.886 22.455 185.188 18.33H185.856C186.801 18.33 188.031 18.022 189.213 17.477C188.4 19.55 189.147 20.942 190.874 20.942C192.53 20.942 194.387 19.45 195.838 18.074C195.548 19.679 196.505 20.942 198.422 20.942C200.918 20.942 203.792 18.305 206.29 15.436L206.288 15.434C207.643 13.8896 208.871 12.2581 209.858 10.9483L209.858 10.9481C210.118 10.6025 210.362 10.2793 210.586 9.986C210.186 11.0262 209.992 12.345 209.802 13.6378C209.427 16.1927 209.066 18.646 207.16 18.646C206.144 18.646 205.74 17.556 205.74 17.556L203.85 18.531C203.85 18.531 204.401 20.943 207.16 20.943C207.428 20.943 207.672 20.9174 207.934 20.8899L208 20.883C208.015 20.883 208.03 20.8762 208.046 20.8695C208.051 20.867 208.057 20.8645 208.062 20.8623C208.069 20.86 208.075 20.858 208.081 20.857C208.084 20.8563 208.088 20.856 208.091 20.856C211.167 20.456 214.215 18.046 216.479 15.436C216.306 14.977 215.783 14.518 215.349 14.402L215.146 14.631C214.081 15.8633 212.861 16.9523 211.516 17.871C211.891 16.7572 212.088 15.4097 212.301 13.953C212.632 11.6952 213 9.17526 214.13 6.857L211.866 5.652C211.635 5.9649 211.353 6.35319 211.031 6.79824L211.031 6.79841C209.608 8.76134 207.385 11.8282 205.16 14.4V14.402L204.957 14.631C202.781 17.127 200.662 19.103 199.326 19.103C198.659 19.103 198.281 18.644 198.979 17.469L205.423 6.311H202.403L197.033 15.576C194.74 17.64 192.971 18.788 192.389 18.529C191.689 18.2377 192.288 17.2534 192.68 16.6088L192.712 16.5557C192.731 16.5245 192.749 16.4942 192.767 16.465L198.66 6.313H195.64L190.906 14.405L190.707 14.631C189.343 16.094 187.66 16.811 186.149 16.841L188.994 11.992C190.822 8.865 189.144 5.912 186.295 5.912C183.972 5.912 182.172 6.83 180.431 9.815L178.949 12.365L177.712 14.455L177.557 14.633C175.381 17.129 172.593 19.106 170.474 19.106C168.616 19.106 167.514 17.96 168.907 15.551L169.197 15.033C171.141 15.837 174.801 15.463 177.064 11.59L177.502 10.844C179.125 8.09 177.56 6.025 175.092 6.025C172.652 6.025 170.705 7.29 169.429 9.469L166.503 14.434L166.328 14.631C163.829 17.471 161.683 19.304 159.3 20.309L166.064 8.893H164.292C164.292 7.659 163.015 6.025 161.128 6.025C159.503 6.025 157.239 7.288 155.961 9.467L153.065 14.404L153.057 14.4L152.854 14.63C150.678 17.125 148.556 19.104 147.22 19.104C146.553 19.104 146.178 18.644 146.874 17.469L149.892 12.249C150.937 10.442 150.443 9.379 149.455 8.203L147.772 6.193C147.337 5.648 147.337 5.047 147.947 4.473L146.379 2.779ZM136.509 10.877C137.536 9.135 137.069 7.929 136.085 7.839V7.84C135.321 7.77 134.245 8.376 133.317 9.932L131.864 12.369L129.572 16.297C127.772 19.394 131.228 19.853 132.65 17.443L132.678 17.387C132.504 17.099 132.388 16.754 132.388 16.383C132.388 15.408 133.172 14.604 134.158 14.604H134.305L136.509 10.877ZM186.243 7.839C187.227 7.929 187.696 9.135 186.669 10.877L184.463 14.604H184.316C183.33 14.604 182.548 15.408 182.548 16.383C182.548 16.754 182.664 17.099 182.837 17.387L182.807 17.443C181.386 19.853 177.932 19.394 179.732 16.297L182.024 12.369L183.475 9.932C184.402 8.376 185.478 7.77 186.243 7.84V7.839ZM175.028 10.846C176.04 9.103 175.511 8.187 174.543 8.244V8.245C173.791 8.289 172.773 8.923 172.011 10.215L170.063 13.57C171.196 13.972 173.142 14.03 174.593 11.592L175.028 10.846ZM122.14 8.445C123.163 8.439 123.818 9.329 122.985 10.845L120.693 14.805C118.863 17.702 117.033 19.105 115.755 19.105C115.088 19.105 114.71 18.646 115.406 17.471L119.618 10.215C120.328 8.998 121.345 8.45 122.14 8.445ZM161.908 10.845C162.741 9.329 162.086 8.439 161.063 8.445C160.268 8.45 159.251 8.998 158.541 10.215L154.331 17.471C153.637 18.646 154.013 19.105 154.68 19.105C155.956 19.105 157.788 17.702 159.616 14.805L161.908 10.845ZM115.725 23.353L115.724 23.3543C113.434 24.2422 112.707 25.1301 112.707 25.904C112.707 26.707 113.723 26.878 114.361 25.76L115.724 23.3543L115.725 23.354V23.353ZM154.649 23.3543L154.65 23.353V23.354L154.649 23.3543ZM154.649 23.3543L153.288 25.76C152.648 26.878 151.632 26.707 151.632 25.904C151.632 25.1301 152.358 24.2422 154.649 23.3543ZM0 11.741H28.922V13.691H0V11.741ZM255.952 11.741H227.03V13.691H255.952V11.741Z" fill="#766458"/>
</svg>
