<svg width="457" height="214" viewBox="0 0 457 214" fill="none" xmlns="http://www.w3.org/2000/svg">
<path fill-rule="evenodd" clip-rule="evenodd" d="M9.289 51.909C9.366 51.987 9.405 52.064 9.405 52.142C9.483 52.142 9.56 52.18 9.637 52.258C11.727 54.58 14.089 56.748 16.721 58.761C19.353 60.696 22.373 61.741 25.779 61.896C25.857 61.896 25.934 61.936 26.011 62.013H26.36C26.437 62.013 26.515 62.051 26.592 62.129H27.869C28.257 62.051 28.605 61.974 28.915 61.896C30.156 61.663 31.3395 61.1898 32.399 60.503C33.559 59.806 34.45 58.954 35.069 57.948L35.302 57.483L35.534 57.019C35.689 56.477 35.805 55.974 35.883 55.509C35.96 55.045 35.999 54.619 35.999 54.232C35.999 52.142 35.069 50.4 33.212 49.006C31.4805 47.5634 29.517 46.4246 27.405 45.638C26.6107 45.3449 25.7954 45.1122 24.966 44.942C24.2379 44.7217 23.5021 44.5279 22.76 44.361H22.528C22.45 44.284 22.373 44.245 22.296 44.245C18.5304 43.3275 14.9274 41.8393 11.612 39.832C8.282 37.742 5.999 34.761 4.76 30.89C4.51737 30.08 4.28502 29.2669 4.063 28.451C3.90406 27.5671 3.78792 26.6761 3.715 25.781C3.64366 25.5153 3.60471 25.242 3.599 24.967V22.18C3.676 21.561 3.792 20.942 3.947 20.322C4.18741 18.7407 4.57612 17.1855 5.108 15.677C5.65 14.129 6.347 12.735 7.198 11.497C9.676 7.393 12.85 4.451 16.721 2.671C20.67 0.89 24.773 0 29.031 0C30.038 0 31.044 0.077 32.051 0.232C33.1384 0.309697 34.2228 0.42577 35.302 0.58C38.126 1.05502 40.8904 1.83388 43.547 2.903C46.334 3.987 48.889 5.264 51.212 6.735L44.825 21.019C42.7406 19.4746 40.5256 18.1147 38.205 16.955C35.883 15.793 33.367 15.213 30.657 15.213H29.727C27.947 15.445 26.283 16.258 24.734 17.651C23.186 18.967 22.412 20.4 22.412 21.948V22.645C22.489 22.877 22.605 23.109 22.76 23.342C22.915 23.884 23.186 24.387 23.573 24.852C23.96 25.316 24.386 25.742 24.85 26.129C25.702 26.826 26.94 27.484 28.567 28.103C30.192 28.645 31.896 29.187 33.677 29.729C35.147 30.116 36.579 30.503 37.973 30.89C39.367 31.2 40.528 31.51 41.457 31.82C45.792 33.368 49.044 35.961 51.212 39.6C53.379 43.161 54.502 46.955 54.579 50.98V51.561C54.579 52.026 54.541 52.491 54.463 52.955V54.232C53.999 58.258 52.683 62.09 50.515 65.729C48.425 69.368 45.599 72.155 42.038 74.091C40.7162 74.7123 39.3588 75.2549 37.973 75.716C36.589 76.101 35.1952 76.4498 33.793 76.762C32.643 76.9926 31.4792 77.1476 30.309 77.226C29.1927 77.3777 28.0676 77.4552 26.941 77.458H25.663C21.018 77.304 16.451 76.297 11.96 74.438C7.47 72.503 3.483 69.948 0 66.774L9.289 51.909ZM225.183 5.663C218.835 9.147 213.88 14.18 210.319 20.76L210.318 20.759C209.295 22.6547 208.44 24.6362 207.763 26.681C207.078 28.6526 206.535 30.6707 206.138 32.72C205.905 33.805 205.75 34.849 205.673 35.855C205.596 36.862 205.557 37.869 205.557 38.875C205.557 45.688 207.415 52.269 211.131 58.617C214.847 64.888 219.957 69.727 226.46 73.133C228.828 74.3593 231.319 75.3323 233.892 76.036C236.48 76.725 239.122 77.1914 241.789 77.43H243.299C243.838 77.5071 244.381 77.5459 244.925 77.546C252.511 77.546 259.751 75.494 266.641 71.391C273.531 67.211 278.602 61.366 281.853 53.856C282.461 52.3436 282.965 50.7917 283.363 49.211C283.821 47.6172 284.132 45.9847 284.292 44.334C284.447 43.559 284.525 42.785 284.525 42.011C284.602 41.159 284.641 40.346 284.641 39.572C284.641 33.148 283.131 26.992 280.112 21.108C277.093 15.147 272.835 10.386 267.338 6.824C264.789 5.20092 262.061 3.87622 259.209 2.876C256.465 1.88036 253.623 1.17974 250.731 0.786C249.802 0.708 248.835 0.631 247.828 0.553C246.899 0.476 245.97 0.437 245.041 0.437C238.151 0.437 231.531 2.179 225.183 5.663ZM298.328 75.744V1.77H317.838L345.709 39.744C346.429 40.8691 347.088 42.0321 347.683 43.228C348.387 44.4023 349.045 45.6032 349.657 46.828L351.051 49.848C351.515 50.854 351.98 51.821 352.444 52.75C352.371 51.9317 352.255 51.1179 352.096 50.312C352.019 49.538 351.941 48.725 351.864 47.873C351.706 46.2893 351.59 44.7018 351.515 43.112C351.435 41.4486 351.396 39.7834 351.399 38.118V1.77H370.792V75.744H351.399L323.296 37.538C322.522 36.609 321.786 35.525 321.09 34.287C320.386 32.955 319.727 31.5992 319.116 30.222C318.666 29.2471 318.202 28.2794 317.722 27.319C317.363 26.3787 316.975 25.4493 316.561 24.532C316.948 26.932 317.258 29.371 317.49 31.848C317.722 34.325 317.832 36.803 317.838 39.28V75.744H298.328ZM405.788 1.77L380.356 75.744H400.33L404.162 62.389H432.73L436.446 75.744H456.652L430.988 1.77H405.788ZM408.46 48.105L416.008 23.602C416.315 22.5274 416.587 21.4428 416.821 20.35C417.137 19.2391 417.408 18.1158 417.633 16.983C417.71 16.828 417.75 16.712 417.75 16.634C417.75 16.48 417.788 16.325 417.866 16.17C417.943 15.705 418.021 15.279 418.098 14.892C418.253 14.428 418.369 14.002 418.446 13.615C418.524 14.002 418.601 14.428 418.679 14.892C418.756 15.28 418.872 15.705 419.027 16.17C419.269 17.4534 419.54 18.731 419.84 20.002C420.216 21.2056 420.603 22.4057 421.001 23.602L428.55 48.105H408.46ZM263.158 47.353C263.39 46.579 263.584 45.766 263.738 44.914C263.971 44.063 264.126 43.211 264.203 42.359C264.281 41.818 264.319 41.276 264.319 40.734C264.397 40.192 264.435 39.688 264.435 39.224C264.435 38.7569 264.396 38.2907 264.319 37.83V36.437C263.932 33.107 262.926 29.895 261.299 26.798C259.674 23.701 257.429 21.301 254.564 19.598C253.79 19.211 253.016 18.863 252.242 18.553C251.468 18.243 250.693 17.973 249.919 17.74C249.151 17.5862 248.376 17.4701 247.597 17.392C246.832 17.2378 246.054 17.1598 245.274 17.159C241.326 17.159 237.687 18.399 234.358 20.876C231.029 23.353 228.706 26.643 227.39 30.746L227.158 31.211V31.675C226.919 32.3979 226.725 33.135 226.578 33.882C226.423 34.579 226.268 35.314 226.113 36.088L225.881 37.714V40.153C225.881 40.385 225.919 40.656 225.997 40.966C226.229 45.069 227.467 48.979 229.713 52.695C232.035 56.333 235.21 58.733 239.235 59.895L240.629 60.359C241.093 60.437 241.597 60.514 242.139 60.591L243.532 60.824H244.926C249.029 60.824 252.706 59.624 255.958 57.224C259.287 54.746 261.687 51.456 263.158 47.353ZM169.157 73.886C173.415 72.956 177.363 71.253 181.002 68.776H181.003C185.493 65.524 188.938 61.344 191.338 56.234C193.738 51.124 195.054 45.821 195.287 40.324V37.421C195.287 36.956 195.248 36.492 195.17 36.028C194.861 30.762 193.506 25.653 191.106 20.698C188.706 15.744 185.338 11.757 181.003 8.738C177.639 6.27947 173.805 4.54002 169.739 3.628C165.713 2.699 161.609 2.118 157.429 1.886C156.268 1.808 155.068 1.77 153.829 1.77H128.745V75.744H152.551C153.791 75.744 155.03 75.7053 156.267 75.628C160.602 75.396 164.899 74.816 169.157 73.886ZM148.602 59.137C148.834 59.137 149.067 59.176 149.299 59.253H150.112C150.422 59.253 150.692 59.293 150.925 59.37H154.06C154.912 59.292 155.725 59.215 156.499 59.137C158.503 58.9838 160.486 58.6338 162.421 58.092C164.357 57.55 166.099 56.737 167.647 55.653C170.125 53.873 171.944 51.473 173.105 48.453C174.337 45.3894 174.968 42.1171 174.963 38.815V37.885C174.963 37.576 174.925 37.266 174.847 36.957C174.695 34.024 173.985 31.1468 172.757 28.479C171.518 25.692 169.815 23.486 167.647 21.859C166.057 20.561 164.189 19.6473 162.189 19.189C160.208 18.7183 158.185 18.4459 156.15 18.376H148.602V59.137ZM68.692 1.769V75.743H114.098V59.137H88.55V46.595H112.589V30.801H88.55V17.911H114.098V1.769H68.692ZM351.039 198.152C350.926 198.443 350.869 198.735 350.869 199.029C350.869 199.747 351.116 200.298 351.609 200.678C352.104 201.062 352.679 201.252 353.329 201.252C353.305 201.633 353.205 201.97 353.025 202.262C352.846 202.553 352.617 202.81 352.349 203.022C352.082 203.235 351.795 203.415 351.492 203.561C351.188 203.706 350.914 203.823 350.664 203.913L352.014 205.903C352.047 205.887 352.079 205.871 352.112 205.856L352.141 205.842L352.198 205.816C352.26 205.787 352.322 205.76 352.384 205.733C352.59 205.645 352.83 205.525 353.11 205.381C353.418 205.218 353.716 205.038 354.003 204.841C354.305 204.638 354.588 204.407 354.846 204.15C355.399 203.601 355.839 202.948 356.142 202.23C356.446 201.511 356.597 200.722 356.597 199.872C356.597 199.421 356.531 198.995 356.395 198.591C356.26 198.187 356.07 197.839 355.823 197.547C355.532 197.23 355.176 196.99 354.762 196.82C354.346 196.652 353.914 196.568 353.464 196.568C353.059 196.568 352.694 196.642 352.369 196.788C352.059 196.923 351.778 197.117 351.542 197.36C351.319 197.596 351.151 197.859 351.039 198.152ZM358.706 199.029C358.706 198.736 358.763 198.443 358.873 198.152C358.986 197.859 359.155 197.596 359.379 197.36C359.606 197.125 359.879 196.932 360.204 196.788C360.531 196.643 360.894 196.568 361.3 196.568C361.75 196.568 362.183 196.652 362.597 196.82C363.014 196.99 363.367 197.23 363.658 197.547C363.908 197.839 364.098 198.187 364.232 198.591C364.366 198.996 364.434 199.422 364.434 199.872C364.443 200.681 364.288 201.483 363.979 202.23C363.675 202.948 363.234 203.6 362.681 204.15C362.422 204.407 362.139 204.638 361.836 204.841C361.55 205.04 361.252 205.22 360.943 205.381C360.663 205.526 360.423 205.645 360.218 205.733C360.094 205.787 359.97 205.844 359.848 205.903L358.5 203.913C358.747 203.824 359.02 203.706 359.325 203.561C359.629 203.415 359.915 203.235 360.185 203.022C360.453 202.808 360.679 202.555 360.858 202.262C361.039 201.97 361.14 201.634 361.162 201.252C360.54 201.263 359.934 201.06 359.443 200.678C358.953 200.298 358.706 199.747 358.706 199.03V199.029ZM93.976 141.188C94.089 140.897 94.146 140.604 94.146 140.313H94.147C94.147 139.594 93.899 139.045 93.407 138.664C92.913 138.282 92.339 138.092 91.689 138.092C91.712 137.709 91.812 137.371 91.992 137.079C92.172 136.787 92.395 136.534 92.665 136.321C92.935 136.107 93.222 135.928 93.525 135.782C93.7943 135.652 94.0696 135.534 94.35 135.43L93.002 133.442C92.958 133.464 92.835 133.522 92.632 133.609C92.429 133.698 92.187 133.817 91.907 133.961C91.5989 134.123 91.3007 134.303 91.014 134.501C90.7106 134.703 90.4278 134.934 90.17 135.191C89.617 135.741 89.1764 136.393 88.873 137.111C88.57 137.831 88.418 138.619 88.418 139.471C88.4158 139.906 88.4841 140.338 88.62 140.751C88.7421 141.133 88.9367 141.488 89.193 141.796C89.4882 142.113 89.8503 142.361 90.253 142.521C90.6648 142.689 91.1054 142.774 91.55 142.773C92.2723 142.783 92.9672 142.497 93.473 141.981C93.6917 141.753 93.8627 141.483 93.976 141.188ZM86.31 140.313C86.3052 140.935 86.0647 141.532 85.637 141.983C85.4014 142.225 85.1208 142.419 84.811 142.554C84.485 142.7 84.119 142.774 83.715 142.774C83.27 142.775 82.8291 142.69 82.417 142.522C82.0144 142.361 81.6524 142.113 81.357 141.796C81.1 141.488 80.9054 141.133 80.784 140.751C80.6476 140.338 80.5793 139.906 80.582 139.471C80.582 138.619 80.732 137.831 81.037 137.111C81.34 136.393 81.7806 135.74 82.334 135.191C82.581 134.943 82.861 134.714 83.177 134.5C83.491 134.288 83.789 134.107 84.07 133.96C84.35 133.816 84.59 133.698 84.794 133.61L84.8507 133.584C85.0195 133.508 85.1254 133.461 85.166 133.44L86.513 135.428C86.265 135.518 85.991 135.636 85.687 135.781C85.384 135.928 85.097 136.107 84.83 136.319C84.5625 136.531 84.3337 136.788 84.154 137.078C83.975 137.37 83.874 137.708 83.852 138.09C84.502 138.09 85.076 138.28 85.57 138.663C86.063 139.045 86.31 139.593 86.31 140.313ZM335.475 197.187H331.66L343.541 176.551H347.317L335.475 197.187ZM331.479 198.675C330.243 198.675 329.298 199.655 329.298 200.893C329.298 202.131 330.244 203.073 331.479 203.073C332.711 203.073 333.696 202.129 333.696 200.893C333.696 199.657 332.711 198.675 331.479 198.675ZM306.217 191.26L305.127 193.148C305.962 195.619 309.266 194.239 310.396 192.277L312.211 189.153C313.556 186.863 310.577 185.192 306.217 191.26ZM330.219 196.128C330.001 195.548 329.347 194.965 328.802 194.821L328.547 195.113C327.218 196.673 325.691 198.052 324.005 199.217C324.475 197.806 324.722 196.098 324.988 194.252C325.4 191.393 325.86 188.203 327.273 185.267L324.438 183.74C324.16 184.122 323.822 184.593 323.437 185.132L323.436 185.133L323.436 185.133C321.659 187.616 318.852 191.537 316.046 194.821C316.052 194.831 316.062 194.839 316.067 194.846C316.061 194.843 316.054 194.839 316.047 194.835C316.039 194.829 316.03 194.824 316.022 194.821L315.769 195.113C313.042 198.273 310.392 200.779 308.719 200.779C307.885 200.779 307.085 199.943 307.085 198.236V196.674C309.737 197.001 312.535 195.256 314.315 192.17L315.331 190.427C318.853 184.397 313.114 182.397 309.263 185.923L314.638 176.586H310.859L300.084 195.281C299.877 195.098 299.645 194.944 299.395 194.824L299.139 195.116C296.416 198.276 292.928 200.782 290.276 200.782C287.951 200.782 286.571 199.329 288.315 196.278L292.199 189.521C294.379 185.779 298.231 186.397 295.977 190.321L295.433 191.265H298.523L299.068 190.321C301.102 186.833 299.139 184.217 296.053 184.217C293.002 184.217 290.566 185.817 288.968 188.577L285.25 194.957C285.23 194.945 285.21 194.933 285.19 194.921C285.131 194.885 285.072 194.849 285.017 194.825L284.762 195.117C282.038 198.277 279.387 200.783 277.715 200.783C276.879 200.783 276.409 200.203 277.279 198.713L285.345 184.58H281.565L274.846 196.314C271.973 198.929 269.761 200.382 269.032 200.056C268.156 199.686 268.905 198.44 269.396 197.624L269.444 197.544L269.481 197.482L269.505 197.441L276.879 184.58H273.101L265.763 197.275C265.257 197.736 264.454 198.166 263.73 198.555C263.286 198.793 262.872 199.015 262.573 199.219C263.044 197.807 263.29 196.099 263.557 194.252V194.252L263.557 194.251C263.969 191.393 264.43 188.204 265.842 185.269L263.01 183.742C261.447 185.885 252.727 197.44 249.312 201.435C249.637 201.907 250.184 202.38 250.728 202.743C252.871 200.273 260.066 191.009 261.41 189.229C260.909 190.547 260.667 192.219 260.43 193.857C259.961 197.094 259.511 200.201 257.122 200.201C255.852 200.201 255.342 198.819 255.342 198.819L252.981 200.055C252.981 200.055 253.671 203.105 257.121 203.105C257.455 203.105 257.757 203.075 258.085 203.042L258.085 203.042L258.177 203.033C258.184 203.033 258.19 203.032 258.197 203.03C258.203 203.028 258.209 203.025 258.215 203.022C258.22 203.02 258.225 203.018 258.23 203.015L258.23 203.015C258.241 203.01 258.251 203.004 258.262 203.001L258.267 202.999L258.27 202.998C258.275 202.998 258.279 202.997 258.283 202.997C260.203 202.743 262.861 201.859 264.643 200.627C264.631 202.164 265.559 203.105 267.143 203.105C269.211 203.105 271.538 201.216 273.353 199.473C272.992 201.508 274.188 203.105 276.588 203.105C278.934 203.105 281.547 201.219 284.025 198.742C284.059 201.252 285.993 203.105 289.151 203.105C292.217 203.105 295.265 201.392 297.892 199.089L295.787 202.743H299.603L303.926 195.223V198.237C303.926 201.469 304.543 203.105 307.596 203.105C310.719 203.105 314.317 199.764 317.441 196.13C317.439 196.127 317.437 196.124 317.434 196.12C317.428 196.113 317.422 196.105 317.421 196.096C317.435 196.108 317.452 196.119 317.468 196.13C319.181 194.156 320.733 192.065 321.971 190.396C322.282 189.977 322.574 189.584 322.843 189.226C322.343 190.544 322.102 192.214 321.865 193.852C321.396 197.09 320.946 200.199 318.556 200.199C317.286 200.199 316.776 198.817 316.776 198.817L314.414 200.053C314.414 200.053 315.105 203.103 318.556 203.103C318.884 203.103 319.182 203.074 319.508 203.041L319.612 203.031C319.628 203.031 319.643 203.024 319.659 203.016C319.678 203.006 319.697 202.996 319.717 202.996C323.57 202.484 327.385 199.434 330.218 196.126L330.219 196.128ZM215.445 195.042H215.628L218.388 190.32C220.676 186.395 217.044 184.615 214.391 189.12L212.575 192.208L209.705 197.185C207.452 201.109 211.776 201.689 213.555 198.639L213.592 198.566C213.374 198.204 213.229 197.769 213.229 197.297C213.229 196.059 214.21 195.042 215.445 195.042ZM190.198 209.173C189.398 210.59 188.126 210.373 188.126 209.357C188.126 208.377 189.035 207.251 191.941 206.123L190.198 209.173ZM155.353 200.746C156.915 200.746 159.168 199.038 161.456 195.443L164.397 190.283C166.251 186.867 162.219 185.96 160.184 189.482L154.917 198.675C154.046 200.166 154.518 200.746 155.353 200.746ZM149.402 180.693C150.528 178.766 151.764 177.931 152.817 177.931C154.235 177.931 154.888 178.875 154.888 180.256C154.888 183.78 150.524 191.089 144.716 190.137H143.953L149.402 180.693ZM241.925 195.079L242.179 194.787L242.18 194.788C242.69 195.006 243.343 195.588 243.598 196.099C240.472 199.732 236.878 203.074 233.752 203.074C230.699 203.074 229.574 200.497 231.172 197.698L236.076 189.16C237.712 186.362 235.132 185.419 229.355 192.649L223.579 202.712H219.764L222.304 198.318C220.618 199.248 218.75 199.768 217.37 199.768H216.535C212.297 205.126 205.269 203.923 205.789 198.646C202.537 201.865 199.423 203.824 196.264 204.818L193.358 209.796C190.636 214.446 185.076 213.682 185.076 210.049C185.076 207.217 188.273 205.108 193.396 203.584L195.467 200.024C193.758 201.548 191.689 203.074 189.872 203.074C187.99 203.074 187.031 201.742 187.484 199.664C185.31 201.654 183.077 203.074 181.044 203.074C177.993 203.074 176.867 200.498 178.465 197.698L183.369 189.164C185.004 186.365 182.424 185.422 176.647 192.652L170.871 202.715H167.057L168.449 200.304C166.507 201.953 164.539 203.077 162.729 203.077C160.805 203.077 159.641 202.062 159.461 200.608C157.644 202.097 155.755 203.077 154.229 203.077C151.554 203.077 150.358 201.096 151.181 198.722L150.957 198.935L150.957 198.935C148.467 201.304 146.604 203.077 142.5 203.077C137.16 203.077 135.599 197.993 138.25 193.415L139.375 191.451C136.325 189.853 134.617 186.946 134.617 183.933C134.617 181.387 135.814 178.811 138.504 176.883L139.739 179.101C138.105 180.371 137.305 182.115 137.305 183.858C137.305 185.966 138.469 188.073 140.685 189.236L146.571 179.099C148.277 176.121 150.748 174.667 152.819 174.667C155.615 174.667 157.832 176.882 157.832 180.297C157.832 181.787 157.359 183.53 156.306 185.383C153.327 190.578 148.749 192.65 144.716 192.65C143.955 192.65 143.264 192.573 142.574 192.466L141.519 194.318C139.269 198.17 140.83 200.749 143.409 200.749C147.084 200.749 149.168 198.332 151.822 195.253L151.969 195.082L152.223 194.79C152.494 194.863 152.791 195.045 153.051 195.278L156.954 188.542C158.55 185.779 161.386 184.182 163.419 184.182C165.89 184.182 167.525 186.398 167.38 187.996H169.523L163.419 198.676C162.548 200.168 163.02 200.748 163.855 200.748C165.528 200.748 168.18 198.241 170.903 195.081L171.157 194.789C171.282 194.847 171.402 194.914 171.516 194.991L177.554 184.546H181.334L179.917 187.015C181.805 185.053 183.513 184.181 185.148 184.181C187.255 184.181 188.817 186.253 187.182 189.123L181.733 198.676C180.862 200.168 181.334 200.748 182.169 200.748C183.841 200.748 186.492 198.241 189.217 195.081L189.471 194.789C189.586 194.843 189.697 194.905 189.802 194.976L195.83 184.546H199.608L192.233 197.406L192.186 197.486L192.122 197.592C191.632 198.41 190.887 199.653 191.761 200.022C192.487 200.348 194.74 198.859 197.647 196.172L204.33 184.546H208.109L197.754 202.276C200.732 201.001 203.384 198.676 206.509 195.081L206.763 194.79C206.882 194.844 206.996 194.908 207.105 194.98L208.725 192.21L210.577 188.977C212.758 185.199 215.009 184.037 217.916 184.037C221.478 184.037 223.584 187.776 221.296 191.738L217.736 197.878C219.625 197.841 221.733 196.931 223.439 195.079L223.694 194.787C223.864 194.867 224.026 194.964 224.176 195.077L230.264 184.544H234.043L232.626 187.013C234.516 185.051 236.221 184.18 237.857 184.18C239.962 184.18 241.528 186.251 239.892 189.121L234.442 198.674C233.571 200.166 234.042 200.746 234.878 200.746C236.55 200.746 239.203 198.239 241.925 195.079ZM360.81 159.215C358.52 162.956 356.195 164.736 354.598 164.736C353.763 164.736 353.291 164.156 354.161 162.666L359.428 153.473C361.463 149.949 365.495 150.858 363.642 154.273H363.677L360.81 159.215ZM318.519 164.736C320.08 164.736 322.333 163.028 324.623 159.434L327.564 154.273C329.416 150.858 325.384 149.949 323.35 153.473L318.082 162.666C317.212 164.156 317.683 164.736 318.519 164.736ZM284.706 173.164C283.909 174.581 282.636 174.364 282.636 173.348C282.636 172.367 283.508 171.241 286.415 170.114L284.706 173.164ZM296.151 141.923C295.096 141.923 293.861 142.757 292.734 144.683L287.286 154.128H288.049C297.676 156.358 302.145 141.923 296.151 141.923ZM370.398 158.78L370.143 159.07C367.423 162.23 364.769 164.737 363.096 164.737C362.261 164.737 361.789 164.157 362.659 162.666L375.448 140.542H371.669L366.112 150.133C365.458 149.079 364.222 148.171 362.659 148.171C360.624 148.171 357.792 149.77 356.193 152.53L352.495 158.91C352.482 158.903 352.469 158.895 352.456 158.887L352.431 158.872C352.373 158.837 352.315 158.802 352.261 158.778L352.006 159.07C349.283 162.23 347.006 164.736 345.334 164.736C344.497 164.736 344.027 164.156 344.896 162.666L350.346 153.111C351.983 150.241 350.418 148.169 348.312 148.169C346.676 148.169 344.972 149.04 343.08 151.004L344.497 148.534H340.718L334.681 158.981C334.566 158.904 334.446 158.836 334.321 158.778L334.065 159.07C331.342 162.23 328.691 164.736 327.019 164.736C326.184 164.736 325.713 164.156 326.583 162.666L332.686 151.984H330.542C330.688 150.386 329.054 148.169 326.582 148.169C324.547 148.169 321.712 149.768 320.114 152.527L316.462 158.833L316.256 159.067C313.534 162.226 310.506 164.732 308.836 164.732C307.999 164.732 307.529 164.152 308.399 162.662L312.177 156.051C313.484 153.761 312.866 152.418 311.632 150.928L309.526 148.384C308.981 147.694 308.981 146.931 309.744 146.204L307.782 144.061C305.638 145.988 305.457 148.13 306.8 149.874L307.129 150.31L306.995 150.499L306.995 150.5C305.337 152.842 303.139 155.947 300.732 158.775C300.744 158.793 300.757 158.81 300.77 158.828C300.783 158.845 300.796 158.862 300.809 158.878C300.865 158.951 300.926 159.023 300.99 159.095C297.877 162.675 295.231 164.99 292.26 166.257L297.055 158.047H293.277L292.878 158.702C290.88 162.226 288.59 164.733 285.648 164.733C283.068 164.733 282.598 162.154 284.848 158.303L285.903 156.451C286.611 156.568 287.327 156.628 288.045 156.632C301.488 156.632 307.991 138.65 296.149 138.65C294.077 138.65 291.605 140.104 289.899 143.082L284.014 153.217C281.798 152.056 280.636 149.949 280.636 147.842C280.636 146.099 281.436 144.354 283.068 143.084L281.835 140.867C279.145 142.793 277.947 145.371 277.947 147.914C277.947 150.93 279.656 153.836 282.707 155.434L281.58 157.397C278.928 161.975 279.4 167.06 284.742 167.06C286.34 167.06 287.683 166.588 288.847 165.86L287.864 167.57C282.744 169.13 279.582 171.201 279.582 174.035C279.582 177.667 285.142 178.431 287.864 173.781L290.771 168.804C294.696 167.569 298.547 164.881 302.689 160.085C302.622 159.959 302.543 159.84 302.453 159.73C304.131 157.759 305.555 155.856 308.403 151.984L308.91 152.603C309.383 153.219 309.564 153.983 309.128 154.747L305.131 161.684C303.532 164.479 304.659 167.058 307.711 167.058C309.61 167.058 312.059 165.819 314.096 164.034C314.052 165.772 315.24 167.058 317.395 167.058C318.92 167.058 320.81 166.078 322.625 164.588C322.808 166.042 323.972 167.058 325.895 167.058C327.705 167.058 329.672 165.933 331.615 164.284L330.223 166.696H334.036L339.813 156.631C345.59 149.402 348.17 150.347 346.533 153.144L341.63 161.682C340.033 164.48 341.157 167.058 344.208 167.058C346.218 167.058 348.044 165.674 350.19 163.725C349.99 165.618 351.194 167.058 353.472 167.058C354.997 167.058 356.886 166.078 358.704 164.588C358.886 166.043 360.049 167.058 361.973 167.058C365.098 167.058 368.693 163.717 371.818 160.082C371.562 159.578 370.909 158.997 370.398 158.78ZM261.897 154.274C264.151 150.35 260.298 149.733 258.118 153.475L255.684 157.725C257.1 158.233 259.535 158.307 261.352 155.218L261.897 154.274ZM255.067 167.062C259.354 167.062 263.607 163.721 266.729 160.087C266.476 159.577 265.821 158.997 265.312 158.779L265.059 159.071C262.333 162.231 258.846 164.737 256.192 164.737C253.867 164.737 252.487 163.284 254.23 160.232L254.593 159.579C257.028 160.595 261.605 160.124 264.439 155.219L264.984 154.275C267.019 150.786 265.057 148.171 261.968 148.171C258.918 148.171 256.484 149.769 254.885 152.53L251.206 158.843C251.168 158.823 251.13 158.795 251.094 158.779L250.839 159.071C248.115 162.231 245.464 164.737 243.792 164.737C242.956 164.737 242.486 164.157 243.355 162.666L248.805 153.111C250.44 150.241 248.877 148.169 246.769 148.169C245.134 148.169 243.39 149.078 241.503 151.04L247.533 140.54H243.755L233.099 159.03C232.964 158.932 232.819 158.847 232.667 158.778L232.412 159.069C229.687 162.23 227.036 164.736 225.364 164.736C224.529 164.736 224.057 164.156 224.927 162.666L233.029 148.532H236.119L237.209 146.715H234.084L237.644 140.54H233.866L230.306 146.715H226.891L225.801 148.532H229.251L221.658 161.685C220.06 164.484 221.186 167.062 224.237 167.062C226.115 167.062 228.163 165.849 230.177 164.098L228.678 166.698H232.493L238.233 156.706C244.046 149.404 246.626 150.349 244.991 153.146L240.086 161.684C238.488 164.482 239.614 167.06 242.666 167.06C244.962 167.06 247.512 165.255 249.942 162.855C250.052 165.286 251.975 167.062 255.067 167.062ZM131.372 154.273C133.626 150.349 129.776 149.732 127.596 153.474L125.161 157.723C126.577 158.232 129.013 158.305 130.828 155.217L131.372 154.273ZM150.715 162.665L155.983 153.474C158.017 149.948 162.05 150.857 160.196 154.273L157.254 159.432C154.966 163.027 152.711 164.736 151.15 164.736C150.316 164.736 149.843 164.155 150.715 162.666V162.665ZM208.475 154.273C210.729 150.349 206.879 149.732 204.699 153.474L202.264 157.723C203.68 158.231 206.115 158.305 207.93 155.217L208.475 154.273ZM146.891 163C146.264 165.24 147.461 167.06 150.025 167.06C151.55 167.06 153.44 166.08 155.255 164.591C155.438 166.044 156.601 167.061 158.525 167.061C160.538 167.061 162.743 165.671 164.894 163.715C164.476 165.757 165.433 167.061 167.294 167.061C169.367 167.061 171.692 165.171 173.507 163.427C173.143 165.463 174.344 167.061 176.741 167.061C179.866 167.061 183.461 163.719 186.586 160.085C186.571 160.056 186.551 160.026 186.53 159.997C186.515 159.976 186.499 159.955 186.486 159.934C188.126 158.026 189.614 156.027 190.816 154.412L190.816 154.412L190.816 154.411L190.817 154.411L190.817 154.41C191.145 153.969 191.452 153.558 191.734 153.184C191.233 154.502 190.991 156.173 190.754 157.812V157.812C190.285 161.048 189.835 164.156 187.446 164.156C186.176 164.156 185.666 162.774 185.666 162.774L183.303 164.009C183.303 164.009 183.993 167.061 187.445 167.061C187.769 167.061 188.063 167.032 188.382 167L188.499 166.988C188.518 166.988 188.536 166.979 188.554 166.97C188.572 166.962 188.589 166.953 188.607 166.953C191.383 166.586 194.136 164.897 196.52 162.744C196.578 165.23 198.506 167.061 201.645 167.061C205.932 167.061 210.183 163.72 213.307 160.085C213.053 159.575 212.399 158.995 211.891 158.777L211.637 159.069C208.912 162.229 205.424 164.736 202.774 164.736C200.448 164.736 199.067 163.282 200.811 160.231L201.175 159.577C203.607 160.593 208.185 160.122 211.02 155.217L211.565 154.274C213.599 150.785 211.637 148.17 208.55 148.17C205.5 148.17 203.063 149.768 201.467 152.528L197.797 158.822C197.792 158.82 197.786 158.818 197.781 158.816C197.776 158.814 197.772 158.812 197.768 158.81L197.749 158.8L197.749 158.8C197.738 158.795 197.728 158.789 197.717 158.785C197.709 158.781 197.701 158.778 197.693 158.776L197.439 159.067C196.11 160.627 194.583 162.007 192.897 163.173C193.368 161.761 193.615 160.053 193.881 158.206C194.294 155.348 194.755 152.158 196.167 149.222L193.334 147.696C193.05 148.086 192.705 148.568 192.309 149.12L192.309 149.12C190.53 151.605 187.736 155.507 184.941 158.776C184.96 158.802 184.981 158.828 185.003 158.854C185.019 158.874 185.036 158.894 185.051 158.914L184.916 159.067C182.192 162.227 179.54 164.734 177.868 164.734C177.033 164.734 176.561 164.154 177.432 162.664L185.497 148.529H181.718L174.998 160.263C172.128 162.879 169.913 164.332 169.184 164.005C168.308 163.635 169.059 162.387 169.55 161.57L169.551 161.568L169.56 161.553C169.581 161.52 169.6 161.487 169.619 161.455C169.632 161.433 169.645 161.411 169.658 161.39L177.031 148.53H173.253L167.24 158.935L167.206 158.914C167.12 158.861 167.034 158.808 166.953 158.774L166.699 159.064C163.974 162.224 161.323 164.731 159.651 164.731C158.816 164.731 158.344 164.151 159.215 162.661L165.318 151.979H163.174C163.32 150.381 161.686 148.163 159.214 148.163C157.18 148.163 154.346 149.763 152.748 152.523L148.918 159.135C148.741 158.991 148.548 158.869 148.342 158.772L148.088 159.062C145.364 162.222 142.23 164.729 139.578 164.729C137.254 164.729 135.872 163.276 137.615 160.225L141.502 153.469C143.682 149.727 147.533 150.344 145.279 154.267L144.734 155.212H147.824L148.368 154.267C150.402 150.78 148.441 148.163 145.354 148.163C142.302 148.163 140.22 149.763 138.624 152.523L134.868 158.966C134.758 158.892 134.642 158.827 134.521 158.772L134.267 159.062C131.543 162.222 128.32 164.729 125.669 164.729C123.343 164.729 121.962 163.276 123.706 160.225L124.069 159.571C126.503 160.589 131.081 160.116 133.915 155.213L134.46 154.267C136.494 150.781 134.532 148.164 131.444 148.164C128.394 148.164 125.958 149.762 124.361 152.524L120.401 159.316C118.038 163.349 120.074 167.054 124.541 167.054C127.87 167.054 130.554 165.039 133.329 162.437C133.231 165.074 135.187 167.054 138.45 167.054C141.538 167.06 144.25 165.326 146.891 163ZM113.07 143.809L110.019 149.04V149.041C113.87 148.968 116.015 148.132 117.465 145.408C119.355 141.847 115.83 139.052 113.07 143.809ZM105.951 166.26C103.698 166.26 101.918 165.752 100.501 164.954C101.155 164.19 101.808 163.245 102.391 162.265L108.747 151.257L109.764 151.365C118.63 153.22 115.105 166.26 105.951 166.26ZM115.288 150.785C122.916 148.204 123.497 138.65 115.977 138.65C113.906 138.65 111.436 140.103 109.729 143.082L99.556 160.666C99.1362 161.421 98.6503 162.138 98.104 162.807C95.488 159.212 96.251 153.836 99.92 151.473L98.393 149.547C90.473 154.597 92.799 169.164 106.023 169.164C117.322 169.166 122.553 155.618 115.288 150.785Z" fill="white"/>
</svg>
