<svg width="188" height="46" viewBox="0 0 188 46" fill="none" xmlns="http://www.w3.org/2000/svg">
<path fill-rule="evenodd" clip-rule="evenodd" d="M59.867 37.364V45.1H39.051V0.352997H59.867V8.023H46.667V18.827H57.202V26.497H46.667V37.363L59.867 37.364ZM81.213 45.1V37.364L70.616 37.363V0.352997H63V45.1H81.213ZM187.743 45.1V37.364H174.542V26.497H185.077V18.827H174.542V8.024H187.743V0.352997H166.927V45.1H187.743ZM162.502 0.353997H154.951L148.158 21.959L141.367 0.353997H133.815V45.101H141.432V23.111L144.414 34.489H151.839L154.886 23.111V45.101H162.502V0.353997ZM123.042 8.024H117.519V37.364H123.043L123.042 8.024ZM130.722 5.085C130.722 2.463 128.564 0.353997 126.024 0.353997L114.6 0.354997C112 0.354997 109.904 2.464 109.904 5.085V40.37C109.904 42.927 112 45.1 114.6 45.1H126.024C128.564 45.1 130.722 42.927 130.722 40.37V5.085ZM98.014 28.606L105.692 26.816V40.368C105.692 42.925 103.535 45.098 100.996 45.098H89.571C86.971 45.098 84.876 42.925 84.876 40.368V5.084C84.876 2.462 86.971 0.353997 89.571 0.353997H100.994C103.534 0.353997 105.691 2.462 105.691 5.084V14.161L98.013 15.951V8.023H92.491V37.363H98.013L98.014 28.606ZM35.284 0.353997H27.607L27.037 37.364H26.275L21.387 0.353997H13.835L9.075 37.364H8.251L7.616 0.353997H0L1.142 45.1H15.675L17.642 26.626L19.61 45.1H34.08L35.284 0.353997Z" fill="#81B3D3"/>
</svg>
